<svg xmlns="http://www.w3.org/2000/svg" width="134" height="140" viewBox="0 0 134 140" fill="none">
  <g clip-path="url(#clip0_1_20121)">
    <path d="M80.7773 7.94749C76.2725 7.44587 71.7457 7.74207 67.5415 8.75323C61.5455 10.1954 56.1089 13.016 51.5429 16.9961C47.0458 20.9597 43.4713 25.9983 41.3037 31.7071C32.0448 23.4869 19.2282 20.3732 7.30498 23.2409C3.10082 24.252 -0.987468 26.0279 -4.82206 28.5352C-21.9239 39.9975 -26.3972 62.9763 -14.8502 79.8686C-13.5881 81.7265 -10.7883 85.3761 -5.79335 90.2268C-4.81857 91.2172 -3.70595 92.1745 -2.55973 93.2677C5.68908 100.65 18.4676 110.113 37.7648 119.954L66.6676 134.689L85.5267 108.467C99.268 89.3109 106.31 74.0719 109.917 63.5497C110.425 62.0587 110.881 60.6522 111.232 59.4148C112.76 54.3643 113.348 50.8364 113.549 48.987C116.062 28.7132 101.375 10.3425 80.7773 7.94749ZM82.5115 106.31L65.6296 129.896L39.6429 116.62C24.6166 108.995 11.9858 100.721 2.05795 92.1571L56.0227 79.1779L56.4336 53.6457L77.9145 103.957L77.9754 59.272L89.0541 82.5452L91.0331 68.0916L105.799 64.6123C102.078 74.0812 95.3852 88.3715 82.5115 106.31ZM109.869 48.5751C109.671 50.1359 109.117 53.5112 107.694 58.3925C107.432 59.1041 107.239 59.799 107.045 60.494L87.4549 65.1336L86.8776 69.5954L74.1002 42.6961L74.0328 85.5816L52.772 35.8656L52.1688 76.2862L-1.45135 89.1825C-2.03286 88.6019 -2.59757 88.0893 -3.16228 87.5767C-7.96898 82.8967 -10.5806 79.4181 -11.7065 77.8156C-22.0939 62.6618 -18.0816 41.9553 -2.72477 31.7053C0.660976 29.45 4.28362 27.8582 8.21209 26.9134C19.1015 24.2943 30.5431 27.1623 38.7919 34.5448L42.9163 38.236L44.8569 33.0861C48.7382 22.7862 57.5592 15.0448 68.4487 12.4257C72.3082 11.4974 76.3357 11.2493 80.3934 11.7143C89.3341 12.7341 97.2909 17.1608 102.876 24.1033C108.46 31.0458 110.903 39.7526 109.869 48.5751Z" fill="#B0C5D7"/>
  </g>
  <defs>
    <clipPath id="clip0_1_20121">
      <rect width="136.81" height="122.312" fill="white" transform="matrix(0.972274 -0.233844 0.239796 0.970823 -29.085 31.9922)"/>
    </clipPath>
  </defs>
</svg>