<svg xmlns="http://www.w3.org/2000/svg" width="148" height="116" viewBox="0 0 148 116" fill="none">
  <g clip-path="url(#clip0_1_20123)">
    <path d="M110.588 -23.9958L140.471 5.88672L147.061 -0.703527L117.178 -30.586L110.588 -23.9958Z" fill="#BDE5DE"/>
    <path d="M117.136 15.583L118.63 8.82412L131.01 -3.55526L120.053 -14.5117L107.603 -2.13234L100.915 -0.638283L117.136 15.583Z" fill="#BACEDE"/>
    <path d="M118.132 16.5776L99.9191 -1.63573C98.2828 -3.27208 96.2195 -4.05469 94.0852 -4.05469C91.9508 -4.05469 89.8876 -3.27208 88.2512 -1.63573L22.7259 63.8896C19.5243 67.0911 19.5243 72.3559 22.7259 75.5575L30.4096 83.2412L1.02641 112.624C0.243802 113.407 0.243802 114.688 1.02641 115.47C1.38214 115.826 1.9513 116.039 2.44932 116.039C2.94734 116.039 3.44536 115.826 3.87224 115.47L33.2555 86.0871L40.9392 93.7708C42.5756 95.4072 44.6388 96.1898 46.7732 96.1898C48.9076 96.1898 50.9708 95.4072 52.6071 93.7708L62.781 83.597L65.6268 80.7511L118.132 28.2455C121.334 25.044 121.334 19.7792 118.132 16.5776ZM115.287 25.3997L111.8 28.8858L99.7057 16.791L96.8598 19.6369L108.955 31.7317L104.472 36.2139L99.848 31.5894L97.0021 34.4352L101.627 39.0597L97.8559 42.8304L85.7611 30.7356L82.9153 33.5815L95.01 45.6762L90.5279 50.1584L85.9034 45.534L83.0575 48.3798L87.682 53.0043L83.8402 56.8461L71.7454 44.7514L68.8995 47.5972L80.9943 59.692L76.5121 64.1742L71.8877 59.5497L69.0418 62.3955L73.6663 67.02L69.1841 71.5022L57.0893 59.4074L54.2435 62.2532L66.3383 74.348L62.4964 78.1899L58.0854 73.2808L55.2395 76.1267L59.864 80.7511L56.0221 84.593L43.9273 72.4982L41.0815 75.3441L53.1763 87.4389L49.6902 90.925C48.9076 91.7076 47.8404 92.2056 46.702 92.2056C45.5637 92.2056 44.4965 91.7787 43.7139 90.925L25.5006 72.7117C23.8642 71.0753 23.8642 68.3718 25.5006 66.6643L91.0259 1.13896C91.8085 0.356354 92.8757 -0.141667 94.014 -0.141667C95.1523 -0.141667 96.2195 0.285208 97.0021 1.13896L115.215 19.3523C115.998 20.1349 116.496 21.2021 116.496 22.3404C116.567 23.5499 116.069 24.6171 115.287 25.3997Z" fill="#B9CEDF"/>
  </g>
  <defs>
    <clipPath id="clip0_1_20123">
      <rect width="146.56" height="146.56" fill="white" transform="translate(0.458008 -30.5918)"/>
    </clipPath>
  </defs>
</svg>