<svg width="36" height="36" viewBox="0 0 36 36" fill="none" xmlns="http://www.w3.org/2000/svg">
<g clip-path="url(#clip0_1_9413)">
<path d="M12.1175 0.988153C7.7329 2.49 3.99341 5.77591 1.91703 9.91859C1.19131 11.3499 0.667176 12.8719 0.354712 14.4443C-0.441568 18.3551 0.112804 22.518 1.91703 26.0861C3.08626 28.4145 4.76953 30.4808 6.80559 32.0935C8.73077 33.6256 10.9684 34.7545 13.3472 35.3895C16.3408 36.1958 19.536 36.1757 22.5598 35.4903C25.2914 34.8653 27.8717 33.555 29.928 31.6601C32.1051 29.6542 33.6574 27.0235 34.4839 24.1912C35.381 21.0968 35.5019 17.8008 34.9375 14.6358C29.2929 14.6358 23.6484 14.6358 17.9938 14.6358C17.9938 16.9742 17.9938 19.3228 17.9938 21.6612C21.2596 21.6612 24.5354 21.6612 27.8012 21.6612C27.4182 23.9089 26.0877 25.9551 24.1927 27.2251C23.0033 28.0214 21.6426 28.5455 20.2315 28.7874C18.8103 29.0293 17.3487 29.0596 15.9376 28.7773C14.4962 28.4951 13.1254 27.8903 11.926 27.0437C10.0109 25.7031 8.54934 23.7275 7.80346 21.5201C7.03742 19.2724 7.02734 16.7626 7.80346 14.5148C8.33767 12.9324 9.23475 11.4608 10.4141 10.2714C11.8655 8.7796 13.7504 7.72126 15.7864 7.28784C17.5302 6.9149 19.3646 6.98545 21.0681 7.49951C22.5195 7.94301 23.85 8.72921 24.9487 9.77747C26.0574 8.67881 27.1561 7.57007 28.2648 6.4714C28.8394 5.87671 29.4542 5.31226 30.0187 4.69741C28.3455 3.14517 26.3699 1.89531 24.223 1.10911C20.3726 -0.332261 16.0082 -0.3625 12.1175 0.988153Z" fill="white"/>
<path d="M12.1181 0.988461C16.0088 -0.362191 20.3732 -0.331952 24.2437 1.09934C26.3907 1.88554 28.3562 3.1354 30.0395 4.68764C29.475 5.29241 28.8702 5.86694 28.2856 6.46163C27.1769 7.56029 26.0782 8.66904 24.9695 9.7677C23.8708 8.71944 22.5403 7.92316 21.0889 7.48974C19.3854 6.97568 17.551 6.90513 15.8072 7.27807C13.7711 7.71149 11.8863 8.77991 10.4348 10.2616C9.25553 11.451 8.35845 12.9226 7.82424 14.5051C5.85874 12.9831 3.89324 11.451 1.92773 9.92898C3.99403 5.77622 7.73352 2.49031 12.1181 0.988461Z" fill="#E94435"/>
<path d="M0.354712 14.4442C0.667176 12.8717 1.20139 11.3497 1.91703 9.91846C3.88254 11.4405 5.84804 12.9725 7.81354 14.4945C7.03742 16.7423 7.0475 19.2521 7.81354 21.4998C5.84804 23.0218 3.88254 24.5539 1.91703 26.0759C0.112804 22.5279 -0.441568 18.355 0.354712 14.4442Z" fill="#F8BB15"/>
<path d="M18.0036 14.6255C23.6481 14.6255 29.2926 14.6255 34.9472 14.6255C35.5117 17.7905 35.3907 21.0864 34.4936 24.1809C33.6671 27.0132 32.1149 29.654 29.9377 31.6498C28.0327 30.1681 26.1176 28.6864 24.2226 27.2047C26.1176 25.9448 27.4481 23.8885 27.8311 21.6408C24.5653 21.6408 21.2895 21.6408 18.0237 21.6408C17.9935 19.3125 18.0036 16.974 18.0036 14.6255Z" fill="#547DBE"/>
<path d="M1.91699 26.0863C3.88249 24.5643 5.848 23.0323 7.8135 21.5103C8.55938 23.7277 10.0209 25.6932 11.936 27.0338C13.1355 27.8805 14.5063 28.4752 15.9477 28.7675C17.3588 29.0497 18.8304 29.0195 20.2415 28.7776C21.6526 28.5357 23.0134 28.0115 24.2028 27.2153C26.1078 28.6969 28.0229 30.1786 29.9178 31.6603C27.8616 33.5653 25.2813 34.8656 22.5497 35.4905C19.536 36.1759 16.3408 36.1961 13.3371 35.3897C10.9583 34.7547 8.72065 33.6258 6.79547 32.0937C4.76949 30.4709 3.08621 28.4046 1.91699 26.0863Z" fill="#34A751"/>
</g>
<defs>
<clipPath id="clip0_1_9413">
<rect width="36" height="36" fill="white"/>
</clipPath>
</defs>
</svg>
