<svg xmlns="http://www.w3.org/2000/svg" aria-hidden="true" style="position:absolute;width:0;height:0;overflow:hidden">
    <defs>
        <symbol id="faq-bubbles" viewBox="0 0 14 32">
            <path
                d="M6.578 3.032c0 1.675-1.35 3.032-3.015 3.032s-3.015-1.358-3.015-3.032c0-1.675 1.35-3.032 3.015-3.032s3.015 1.358 3.015 3.032zM6.51 3.032c0-1.632-1.314-2.964-2.946-2.964s-2.946 1.332-2.946 2.964c0 1.632 1.314 2.964 2.946 2.964s2.946-1.332 2.946-2.964z">
            </path>
            <path
                d="M14.39 16.805c0 2.583-2.224 4.677-4.968 4.677s-4.968-2.094-4.968-4.677c0-2.583 2.224-4.745 4.968-4.745s4.968 2.162 4.968 4.745zM14.321 16.805c0-2.517-2.21-4.677-4.899-4.677s-4.899 2.159-4.899 4.677c0 2.517 2.21 4.608 4.899 4.608s4.899-2.091 4.899-4.608z">
            </path>
            <path
                d="M4.454 29.773c0 1.23-0.997 2.227-2.227 2.227s-2.227-0.997-2.227-2.227c0-1.23 0.997-2.227 2.227-2.227s2.227 0.997 2.227 2.227zM4.385 29.773c0-1.199-0.953-2.158-2.158-2.158s-2.158 0.96-2.158 2.158c0 1.199 0.953 2.158 2.158 2.158s2.158-0.96 2.158-2.158z">
            </path>
        </symbol>
    </defs>
</svg>