<svg xmlns="http://www.w3.org/2000/svg" aria-hidden="true" style="position:absolute;width:0;height:0;overflow:hidden">
    <defs>
        <symbol id="modal-facebook" viewBox="0 0 32 32">
            <path fill="#3c5a9a" d="M16 32c8.837 0 16-7.163 16-16S24.837 0 16 0 0 7.163 0 16s7.163 16 16 16z"
                style="fill:var(--color1, #3c5a9a)" />
            <path fill="#fff"
                d="M21.202 4.911h-3.544c-2.103 0-4.443.885-4.443 3.934.01 1.062 0 2.08 0 3.225h-2.433v3.872h2.509v11.147h4.61V15.868h3.043l.275-3.809h-3.397s.008-1.695 0-2.187c0-1.205 1.254-1.136 1.329-1.136.597 0 1.757.002 2.054 0V4.911h-.002z"
                style="fill:var(--color2, #fff)" />
        </symbol>
        <symbol id="modal-google" viewBox="0 0 32 32">
            <path fill="#fff"
                d="M12.493 5.195c-2.784.954-5.158 3.04-6.477 5.67a11.44 11.44 0 0 0 0 10.266 11.424 11.424 0 0 0 3.104 3.814 11.405 11.405 0 0 0 4.154 2.093c1.901.512 3.93.499 5.85.064 1.734-.397 3.373-1.229 4.678-2.432 1.382-1.274 2.368-2.944 2.893-4.742.57-1.965.646-4.058.288-6.067H16.225v4.461h6.227a5.386 5.386 0 0 1-2.291 3.533 6.497 6.497 0 0 1-2.515.992c-.902.154-1.83.173-2.726-.006a6.643 6.643 0 0 1-2.547-1.101 7.086 7.086 0 0 1-2.618-3.507 6.92 6.92 0 0 1 0-4.448 7.036 7.036 0 0 1 1.658-2.694 6.754 6.754 0 0 1 3.411-1.894 6.77 6.77 0 0 1 3.354.134 6.215 6.215 0 0 1 2.464 1.446c.704-.698 1.402-1.402 2.106-2.099.365-.378.755-.736 1.114-1.126a11.013 11.013 0 0 0-3.68-2.278c-2.445-.915-5.216-.934-7.686-.077z"
                style="fill:var(--color2, #fff)" />
            <path fill="#e94435"
                d="M12.494 5.196a11.52 11.52 0 0 1 7.699.07c1.363.499 2.611 1.293 3.68 2.278-.358.384-.742.749-1.114 1.126-.704.698-1.402 1.402-2.106 2.099a6.123 6.123 0 0 0-2.464-1.446 6.77 6.77 0 0 0-3.354-.134 6.802 6.802 0 0 0-3.411 1.894 7.056 7.056 0 0 0-1.658 2.694c-1.248-.966-2.496-1.939-3.744-2.906 1.312-2.637 3.686-4.723 6.47-5.677z"
                style="fill:var(--color3, #e94435)" />
            <path fill="#f8bb15"
                d="M5.024 13.74a11.42 11.42 0 0 1 .992-2.874c1.248.966 2.496 1.939 3.744 2.906a6.92 6.92 0 0 0 0 4.448c-1.248.966-2.496 1.939-3.744 2.906a11.411 11.411 0 0 1-.992-7.386z"
                style="fill:var(--color4, #f8bb15)" />
            <path fill="#547dbe"
                d="M16.23 13.854h10.758c.358 2.01.282 4.102-.288 6.067-.525 1.798-1.51 3.475-2.893 4.742-1.21-.941-2.426-1.882-3.629-2.822a5.37 5.37 0 0 0 2.291-3.533h-6.227c-.019-1.478-.013-2.963-.013-4.454z"
                style="fill:var(--color5, #547dbe)" />
            <path fill="#34a751"
                d="M6.016 21.132c1.248-.966 2.496-1.939 3.744-2.906a7.055 7.055 0 0 0 2.618 3.507 6.759 6.759 0 0 0 2.547 1.101c.896.179 1.83.16 2.726.006s1.76-.486 2.515-.992c1.21.941 2.426 1.882 3.629 2.822-1.306 1.21-2.944 2.035-4.678 2.432-1.914.435-3.942.448-5.85-.064a11.42 11.42 0 0 1-4.154-2.093 11.626 11.626 0 0 1-3.098-3.814z"
                style="fill:var(--color6, #34a751)" />
        </symbol>
        <symbol id="numbers-discovery-blood" viewBox="0 0 34 32">
            <path fill="#b0c5d7"
                d="M22.944 1.682a7.967 7.967 0 0 0-2.764.171 7.812 7.812 0 0 0-3.341 1.745 7.903 7.903 0 0 0-2.138 3.113 7.863 7.863 0 0 0-7.1-1.792 8.045 8.045 0 0 0-2.533 1.12 7.839 7.839 0 0 0-2.094 10.864c.264.393.848 1.166 1.891 2.192.204.209.436.412.675.644 1.723 1.562 4.391 3.565 8.421 5.648l6.036 3.119 3.939-5.55c2.87-4.054 4.34-7.279 5.094-9.506.106-.316.201-.613.275-.875.319-1.069.442-1.816.484-2.207.525-4.291-2.542-8.179-6.844-8.686zm.362 20.817-3.526 4.992-5.427-2.809c-3.138-1.614-5.776-3.365-7.849-5.177l11.27-2.747.086-5.404 4.486 10.648.013-9.457 2.314 4.926.413-3.059 3.084-.736c-.777 2.004-2.175 5.028-4.863 8.825zm5.713-12.219c-.041.33-.157 1.045-.454 2.078-.055.151-.095.298-.136.445l-4.091.982-.121.944-2.668-5.693-.014 9.076-4.44-10.522-.126 8.555-11.198 2.729c-.121-.123-.239-.231-.357-.34-1.004-.991-1.549-1.727-1.784-2.066-2.169-3.207-1.331-7.589 1.876-9.759A7.017 7.017 0 0 1 7.79 5.695a7.024 7.024 0 0 1 6.386 1.615l.861.781.405-1.09a7.026 7.026 0 0 1 4.927-4.373 7.091 7.091 0 0 1 2.495-.151c1.867.216 3.529 1.153 4.695 2.622s1.676 3.312 1.461 5.179z"
                style="fill:var(--color7, #b0c5d7)" />
        </symbol>
        <symbol id="numbers-pacients-heart" viewBox="0 0 35 32">
            <path fill="#b0c5d7"
                d="M29.773 6.263a8.705 8.705 0 0 0-2.651-1.142 8.532 8.532 0 0 0-3.924-.033 8.129 8.129 0 0 0-3.445 1.729c-.986-2.428-3.169-4.256-5.769-4.888a8.807 8.807 0 0 0-2.88-.202c-4.457.456-7.599 4.281-7.026 8.541.061.468.245 1.418.735 2.805.091.279.213.565.328.879.873 2.174 2.42 5.176 5.196 8.884l4.159 5.553 6.259-3.022c4.565-2.211 7.441-4.35 9.182-5.949.246-.227.474-.443.665-.638.796-.788 1.26-1.384 1.482-1.708 2.494-3.514 1.457-8.354-2.309-10.809zm-9.393 18.41-5.613 2.726-3.737-4.998c-2.166-2.881-3.802-5.648-4.884-8.205l11.77 2.86 2.605-4.695-.802 11.426 4.432-8.281-.149 5.397 1.814-2.487 3.213.796c-1.66 1.393-4.374 3.389-8.65 5.46zm11.027-8.036c-.193.27-.634.842-1.394 1.608a5.445 5.445 0 0 0-.334.326l-4.266-1.052-.553.771.178-6.235-4.255 7.946.786-11.294-4.115 7.437-11.695-2.842a10.647 10.647 0 0 0-.174-.465C5.114 11.5 4.95 10.6 4.89 10.193c-.52-3.824 2.308-7.272 6.306-7.674a7.674 7.674 0 0 1 2.599.179c2.375.577 4.315 2.226 5.187 4.4l.436 1.087.887-.766c1.773-1.531 4.253-2.106 6.628-1.529a7.75 7.75 0 0 1 2.391 1.034c1.637 1.062 2.745 2.659 3.143 4.492s.012 3.685-1.062 5.221z"
                style="fill:var(--color7, #b0c5d7)" />
        </symbol>
        <symbol id="numbers-pacients-squirt" viewBox="0 0 22 32">
            <path fill="#fff"
                d="M6.65 14.321c2.792 1.438 6.363 2.718 8.376.705 2.022-2.022.733-5.584-.705-8.376l-.686 1.261s1.243 2.625-.928 4.795-4.795.928-4.795.928l-1.261.686z"
                style="fill:var(--color2, #fff)" />
            <path fill="#bbd0e0"
                d="M15.249 15.249c2.885-2.885-.399-8.45-1.976-11.121C12.429 2.709 10.722.279 8.672.019c-.918-.111-1.79.223-2.579 1.011l.445.445C7.187.826 7.864.547 8.588.64c1.846.232 3.506 2.736 4.137 3.803 1.382 2.337 4.61 7.819 2.078 10.361-2.541 2.541-8.023-.696-10.361-2.078C3.375 12.095.88 10.435.639 8.589c-.093-.733.176-1.401.835-2.05l-.445-.445C.241 6.882-.093 7.754.018 8.673c.111.881.798 2.643 4.1 4.601 2.681 1.577 8.246 4.86 11.13 1.976z"
                style="fill:var(--color8, #bbd0e0)" />
            <path fill="#bbcfde"
                d="M21.315 25.266a3.086 3.086 0 0 0 .909-2.198c0-.826-.325-1.614-.909-2.198l-6.066-6.066-.445.445 6.066 6.066c.473.473.723 1.095.723 1.753s-.26 1.28-.723 1.753a2.485 2.485 0 0 1-3.506 0l-4.461-4.461c-.584-.584-1.363-.909-2.198-.909s-1.614.325-2.198.909a3.108 3.108 0 0 0 0 4.397l5.352 5.352.445-.445-5.352-5.352a2.485 2.485 0 0 1 0-3.506c.464-.464 1.095-.723 1.753-.723s1.28.26 1.753.723l4.461 4.461a3.124 3.124 0 0 0 4.397 0z"
                style="fill:var(--color9, #bbcfde)" />
            <path fill="#bbd0e0" d="M14.08 31.954a2.068 2.068 0 1 0 0-4.136 2.068 2.068 0 0 0 0 4.136z"
                style="fill:var(--color8, #bbd0e0)" />
            <path fill="#facf4f" d="M14.08 30.924a1.039 1.039 0 1 0 0-2.078 1.039 1.039 0 0 0 0 2.078z"
                style="fill:var(--color10, #facf4f)" />
        </symbol>
        <symbol id="numbers-vaccination-heart" viewBox="0 0 21 32">
            <path fill="#b8cde0"
                d="M1.124 24.778C.41 24.075.011 23.135 0 22.151s.357-1.913 1.049-2.605l2.627-2.627.53.53-2.627 2.627c-.551.551-.854 1.297-.843 2.087s.335 1.546.897 2.108c1.178 1.178 3.059 1.2 4.195.054l.746-.746c.692-.692 1.611-1.059 2.605-1.049s1.924.411 2.638 1.124c1.459 1.459 1.492 3.816.076 5.232l-3.07 3.07-.53-.53 3.07-3.07c1.146-1.146 1.114-3.027-.054-4.195-.573-.573-1.319-.887-2.108-.897s-1.535.292-2.087.843l-.746.746c-1.438 1.427-3.784 1.395-5.243-.076z"
                style="fill:var(--color11, #b8cde0)" />
            <path fill="#f3dfea"
                d="m20.659 8.941-8.595 8.595c-2.281 2.281-6.022 2.227-8.357-.119-2.335-2.335-2.389-6.076-.119-8.357L12.183.465c.638-.638 1.676-.616 2.335.032l6.108 6.108c.649.659.659 1.697.032 2.335z"
                style="fill:var(--color12, #f3dfea)" />
            <path fill="#bacee3"
                d="M20.616 6.724 14.4.508c-.659-.659-1.73-.681-2.378-.032L3.276 9.222c-2.313 2.313-2.259 6.119.119 8.508 2.378 2.378 6.184 2.432 8.508.119l8.746-8.757c.649-.638.627-1.708-.032-2.368zm-9.254 10.584C9.34 19.33 6 19.286 3.913 17.2s-2.13-5.416-.108-7.449l8.746-8.746c.357-.357.951-.346 1.319.022l6.216 6.216c.368.368.378.962.022 1.319l-8.746 8.746z"
                style="fill:var(--color13, #bacee3)" />
            <path fill="#fff"
                d="m15.481 10.422-1.589-1.578 1.546-1.546-1.611-1.611-1.546 1.546-1.589-1.589-1.557 1.568 1.578 1.578-1.535 1.546 1.6 1.611 1.546-1.546 1.589 1.589 1.568-1.568z"
                style="fill:var(--color2, #fff)" />
        </symbol>
        <symbol id="numbers-vaccination-medicine" viewBox="0 0 36 32">
            <path fill="#cef2f0" stroke="#abc4d9" stroke-width=".619"
                d="m29.676 11.734-8.762 8.762-9.472-9.472 8.762-8.762c2.604-2.604 6.846-2.605 9.472 0 2.625 2.625 2.624 6.867 0 9.471z"
                style="fill:var(--color14, #cef2f0);stroke:var(--color15, #abc4d9)" />
            <path fill="#d0e1f1"
                d="m20.934 20.934-8.96 8.96a6.99 6.99 0 0 1-9.91 0C.701 28.531.02 26.735.02 24.939s.681-3.592 2.044-4.955l8.96-8.96 9.91 9.91z"
                style="fill:var(--color16, #d0e1f1)" />
            <path fill="#abc4d9"
                d="m11.025 11.025-8.981 8.96C.681 21.348 0 23.144 0 24.94s.681 3.592 2.044 4.955 3.159 2.044 4.955 2.044 3.592-.681 4.955-2.044l8.96-8.96-9.889-9.91zm.227 18.167a5.953 5.953 0 0 1-4.232 1.755c-1.61 0-3.117-.619-4.232-1.755a5.953 5.953 0 0 1-1.755-4.232c0-1.61.619-3.117 1.755-4.232l8.258-8.258 8.485 8.485-8.279 8.237z"
                style="fill:var(--color15, #abc4d9)" />
            <path fill="#d0e1f1" d="m34.498 29.11-8.857-8.857a6.39 6.39 0 0 1 8.857 8.857z"
                style="fill:var(--color16, #d0e1f1)" />
            <path fill="#cef2f0"
                d="M34.498 29.11c0 .021-.021.021-.021.041a6.61 6.61 0 0 1-.785.95 6.876 6.876 0 0 1-.95.785c-.021 0-.021.021-.041.021l-8.857-8.857c0-.021.021-.021.021-.041.227-.33.475-.64.785-.95.289-.289.619-.558.95-.785.021 0 .021-.021.041-.021l8.857 8.857z"
                style="fill:var(--color14, #cef2f0)" />
            <path fill="#abc4d9"
                d="M33.693 21.058a6.413 6.413 0 0 0-4.521-1.879v1.012c1.445 0 2.787.557 3.799 1.569 1.817 1.817 2.106 4.686.661 6.813a4.064 4.064 0 0 1-.661.785 6.278 6.278 0 0 1-.805.661 5.356 5.356 0 0 1-3.014.929 5.323 5.323 0 0 1-3.799-1.569c-1.817-1.817-2.106-4.686-.661-6.813.186-.289.413-.557.661-.785.248-.248.516-.454.805-.661a5.356 5.356 0 0 1 3.014-.929v-1.012a6.436 6.436 0 0 0-3.572 1.094c-.33.227-.64.475-.95.784a6.876 6.876 0 0 0-.785.95 6.394 6.394 0 0 0 .785 8.093 6.413 6.413 0 0 0 4.521 1.879 6.436 6.436 0 0 0 3.572-1.094c.33-.227.64-.475.95-.785.289-.289.557-.619.785-.95 1.672-2.498 1.425-5.905-.785-8.093z"
                style="fill:var(--color15, #abc4d9)" />
        </symbol>
        <symbol id="numbers-years-stethoscope" viewBox="0 0 32 32">
            <path fill="#bde5de" d="m24.046 1.44 6.525 6.525 1.439-1.439L25.485.001 24.046 1.44z"
                style="fill:var(--color17, #bde5de)" />
            <path fill="#bacede" d="m25.476 10.082.326-1.476 2.703-2.703-2.392-2.392-2.718 2.703-1.46.326 3.542 3.542z"
                style="fill:var(--color18, #bacede)" />
            <path fill="#b9cedf"
                d="m25.693 10.299-3.977-3.977c-.357-.357-.808-.528-1.274-.528s-.916.171-1.274.528L4.861 20.629a1.81 1.81 0 0 0 0 2.548l1.678 1.678-6.416 6.416a.44.44 0 0 0 0 .621c.078.078.202.124.311.124s.217-.047.311-.124l6.416-6.416 1.678 1.678c.357.357.808.528 1.274.528s.916-.171 1.274-.528l14.307-14.307a1.81 1.81 0 0 0 0-2.548zm-.621 1.926-.761.761-2.641-2.641-.621.621 2.641 2.641-.979.979-1.01-1.01-.621.621 1.01 1.01-.823.823-2.641-2.641-.621.621 2.641 2.641-.979.979-1.01-1.01-.621.621 1.01 1.01-.839.839-2.641-2.641-.621.621 2.641 2.641-.979.979-1.01-1.01-.621.621 1.01 1.01-.979.979-2.641-2.641-.621.621 2.641 2.641-.839.839-.963-1.072-.621.621 1.01 1.01-.839.839-2.641-2.641-.621.621 2.641 2.641-.761.761c-.171.171-.404.28-.652.28s-.482-.093-.652-.28l-3.977-3.977a.947.947 0 0 1 0-1.32L19.778 6.926c.171-.171.404-.28.652-.28s.482.093.652.28l3.977 3.977a.93.93 0 0 1 .28.652.865.865 0 0 1-.264.668z"
                style="fill:var(--color19, #b9cedf)" />
        </symbol>
        <symbol id="arrow-down" viewBox="0 0 32 32">
            <path stroke-linecap="round" stroke-linejoin="round" stroke-miterlimit="10" stroke-width="1.5"
                d="m26.56 11.934-8.693 8.693a2.647 2.647 0 0 1-3.733 0l-8.693-8.693" />
        </symbol>
        <symbol id="close-square" viewBox="0 0 32 32">
            <path stroke-linecap="round" stroke-linejoin="round" stroke-width="2"
                d="m12.227 19.773 7.547-7.547m-.001 7.547-7.547-7.547M12 29.333h8c6.667 0 9.333-2.667 9.333-9.333v-8c0-6.667-2.667-9.333-9.333-9.333h-8c-6.667 0-9.333 2.667-9.333 9.333v8c0 6.667 2.667 9.333 9.333 9.333z" />
        </symbol>
        <symbol id="doctors-arrow" viewBox="0 0 31 32">
            <path stroke-linecap="round" stroke-linejoin="round" stroke-miterlimit="10" stroke-width="1.92"
                d="M18.47 8.23 26.24 16l-7.77 7.77M4.48 16h21.542" />
        </symbol>
        <symbol id="doctors-repeat" viewBox="0 0 32 32">
            <path stroke-linecap="round" stroke-linejoin="round" stroke-miterlimit="10" stroke-width="2"
                d="M4.773 6.88h18.453c2.213 0 4 1.787 4 4v4.427" />
            <path stroke-linecap="round" stroke-linejoin="round" stroke-miterlimit="10" stroke-width="2"
                d="M8.987 2.667 4.774 6.88l4.213 4.213m18.24 14.027H8.774c-2.213 0-4-1.787-4-4v-4.427" />
            <path stroke-linecap="round" stroke-linejoin="round" stroke-miterlimit="10" stroke-width="2"
                d="m23.013 29.333 4.213-4.213-4.213-4.213" />
        </symbol>
        <symbol id="eye-slash" viewBox="0 0 32 32">
            <path
                d="m21.58 25.824-3.228-3.23a6.999 6.999 0 0 1-8.948-8.948l-4.12-4.12C1.876 12.556 0 16 0 16s6 11 16 11a14.064 14.064 0 0 0 5.58-1.176zM10.42 6.176A14.064 14.064 0 0 1 16 5c10 0 16 11 16 11s-1.878 3.442-5.282 6.476l-4.124-4.124a6.999 6.999 0 0 0-8.948-8.948L10.42 6.176z" />
            <path
                d="M11.052 15.294a4.993 4.993 0 0 0 1.414 4.244 4.992 4.992 0 0 0 4.244 1.414l-5.658-5.658zm9.9 1.416-5.658-5.66a4.993 4.993 0 0 1 4.244 1.414 4.992 4.992 0 0 1 1.414 4.244v.002zm6.342 12-24-24L4.71 3.294l24 24-1.416 1.416z" />
        </symbol>
        <symbol id="footer-call" viewBox="0 0 31 32">
            <path stroke-miterlimit="10" stroke-width=".787"
                d="M24.89 21.811c0 .331-.073.67-.23 1.001s-.358.643-.624.936c-.45.496-.946.854-1.506 1.083a4.603 4.603 0 0 1-1.79.349c-.936 0-1.937-.22-2.993-.67s-2.111-1.056-3.158-1.818a26.34 26.34 0 0 1-3.011-2.57 26.072 26.072 0 0 1-2.561-3.002c-.753-1.047-1.359-2.093-1.799-3.13-.441-1.047-.661-2.047-.661-3.002 0-.624.11-1.221.33-1.772.22-.56.569-1.074 1.056-1.533.588-.578 1.23-.863 1.91-.863.257 0 .514.055.744.165.239.11.45.275.615.514l2.13 3.002c.165.229.285.441.367.643.083.193.129.386.129.56 0 .22-.064.441-.193.652a3.143 3.143 0 0 1-.514.652l-.698.725a.49.49 0 0 0-.147.367c0 .073.009.138.028.211.028.073.055.129.073.184.165.303.45.698.854 1.175.413.477.854.964 1.331 1.45.496.487.973.936 1.46 1.349.477.404.872.679 1.184.845.046.018.101.046.165.073a.624.624 0 0 0 .23.037.504.504 0 0 0 .376-.156l.698-.689c.23-.23.45-.404.661-.514.211-.129.422-.193.652-.193.174 0 .358.037.56.119s.413.202.643.358l3.039 2.157c.239.165.404.358.505.588.092.23.147.459.147.716z" />
            <path stroke-linecap="round" stroke-linejoin="round" stroke-width=".787"
                d="M21.705 13.246c0-.551-.431-1.395-1.074-2.084-.588-.633-1.368-1.129-2.139-1.129m6.426 3.213a6.42 6.42 0 0 0-6.426-6.426" />
        </symbol>
        <symbol id="footer-facebook" viewBox="0 0 32 32">
            <path stroke-linecap="round" stroke-miterlimit="10" stroke-width=".8"
                d="M17.867 13.48v2.707h2.427c.187 0 .28.187.28.373l-.373 1.773c0 .093-.187.187-.28.187h-2.053v6.813h-2.8v-6.72h-1.587c-.187 0-.28-.093-.28-.28V16.56c0-.187.093-.28.28-.28h1.587V13.2c0-1.587 1.213-2.8 2.8-2.8h2.52c.187 0 .28.093.28.28v2.24c0 .187-.093.28-.28.28h-2.24c-.187 0-.28.093-.28.28z" />
            <path stroke-linecap="round" stroke-linejoin="round" stroke-width=".8"
                d="M18.8 25.333h-5.6c-4.667 0-6.533-1.867-6.533-6.533v-5.6c0-4.667 1.867-6.533 6.533-6.533h5.6c4.667 0 6.533 1.867 6.533 6.533v5.6c0 4.667-1.867 6.533-6.533 6.533z" />
        </symbol>
        <symbol id="footer-google" viewBox="0 0 32 32">
            <path stroke-linecap="round" stroke-linejoin="round" stroke-miterlimit="10" stroke-width=".8"
                d="M24.96 14.32h-8.773v3.453h5.133c-.093.84-.653 2.147-1.867 2.987-.747.56-1.867.933-3.267.933-2.427 0-4.573-1.587-5.32-3.92-.187-.56-.28-1.213-.28-1.867s.093-1.307.28-1.867c.093-.187.093-.373.187-.467.84-1.96 2.8-3.36 5.133-3.36 1.773 0 2.893.747 3.64 1.4l2.613-2.613c-1.587-1.4-3.733-2.333-6.253-2.333-3.64 0-6.813 2.053-8.307 5.133-.653 1.307-1.027 2.707-1.027 4.2s.373 2.893 1.027 4.2c1.493 3.08 4.667 5.133 8.307 5.133 2.52 0 4.667-.84 6.16-2.24 1.773-1.587 2.8-4.013 2.8-6.907 0-.747-.093-1.307-.187-1.867z" />
        </symbol>
        <symbol id="footer-instagram" viewBox="0 0 32 32">
            <path stroke-linecap="round" stroke-linejoin="round" stroke-width=".8"
                d="M13.2 25.333h5.6c4.667 0 6.533-1.867 6.533-6.533v-5.6c0-4.667-1.867-6.533-6.533-6.533h-5.6c-4.667 0-6.533 1.867-6.533 6.533v5.6c0 4.667 1.867 6.533 6.533 6.533z" />
            <path stroke-linecap="round" stroke-linejoin="round" stroke-width=".8"
                d="M16 19.267c.429 0 .854-.084 1.25-.249s.756-.405 1.06-.708a3.26 3.26 0 0 0 .957-2.31 3.28 3.28 0 0 0-.957-2.31 3.268 3.268 0 0 0-4.62 0A3.265 3.265 0 0 0 16 19.267z" />
            <path stroke-linecap="round" stroke-linejoin="round" stroke-width="1.067" d="M21.26 11.333h.011" />
        </symbol>
        <symbol id="footer-mail" viewBox="0 0 31 32">
            <path stroke-linecap="round" stroke-linejoin="round" stroke-miterlimit="10" stroke-width=".787"
                d="M20.328 23.803h-9.18c-2.754 0-4.59-1.377-4.59-4.59v-6.426c0-3.213 1.836-4.59 4.59-4.59h9.18c2.754 0 4.59 1.377 4.59 4.59v6.426c0 3.213-1.836 4.59-4.59 4.59z" />
            <path stroke-linecap="round" stroke-linejoin="round" stroke-miterlimit="10" stroke-width=".787"
                d="m20.328 13.246-2.873 2.295c-.946.753-2.497.753-3.443 0l-2.864-2.295" />
        </symbol>
        <symbol id="footer-map" viewBox="0 0 32 32">
            <path stroke-linecap="round" stroke-linejoin="round" stroke-width=".533"
                d="M12.785 8.618v12.133m6.692-9.688v12.488M6.933 12.146v9.081c0 1.773 1.26 2.501 2.791 1.624l2.193-1.251c.476-.271 1.269-.299 1.764-.047l4.9 2.455c.495.243 1.288.224 1.764-.047l4.041-2.315c.513-.299.943-1.027.943-1.624v-9.081c0-1.773-1.26-2.501-2.791-1.624l-2.193 1.251c-.476.271-1.269.299-1.764.047l-4.9-2.445c-.495-.243-1.288-.224-1.764.047l-4.041 2.315c-.523.299-.943 1.027-.943 1.615z" />
        </symbol>
        <symbol id="header-user" viewBox="0 0 32 32">
            <path stroke-linecap="round" stroke-linejoin="round" stroke-width="1.143"
                d="M27.453 29.333C27.453 24.173 22.32 20 16 20S4.547 24.173 4.547 29.333M15.999 16a6.67 6.67 0 0 0 4.714-11.381A6.668 6.668 0 1 0 15.999 16z" />
        </symbol>
        <symbol id="hero-icon-1" viewBox="0 0 33 32">
            <path stroke-miterlimit="10" stroke-width="1.143"
                d="M29.674 24.44c0 .48-.107.973-.333 1.453s-.52.933-.907 1.36c-.653.72-1.373 1.24-2.187 1.573-.8.333-1.667.507-2.6.507-1.36 0-2.813-.32-4.347-.973s-3.067-1.533-4.587-2.64a38.32 38.32 0 0 1-4.373-3.733 37.89 37.89 0 0 1-3.72-4.36c-1.093-1.52-1.973-3.04-2.613-4.547-.64-1.52-.96-2.973-.96-4.36 0-.907.16-1.773.48-2.573.32-.813.827-1.56 1.533-2.227.853-.84 1.787-1.253 2.773-1.253.373 0 .747.08 1.08.24.347.16.653.4.893.747l3.093 4.36c.24.333.413.64.533.933.12.28.187.56.187.813 0 .32-.093.64-.28.947a4.52 4.52 0 0 1-.747.947l-1.013 1.053a.712.712 0 0 0-.213.533c0 .107.013.2.04.307.04.107.08.187.107.267.24.44.653 1.013 1.24 1.707.6.693 1.24 1.4 1.933 2.107.72.707 1.413 1.36 2.12 1.96.693.587 1.267.987 1.72 1.227.067.027.147.067.24.107a.92.92 0 0 0 .333.053c.227 0 .4-.08.547-.227l1.013-1c.333-.333.653-.587.96-.747.307-.187.613-.28.947-.28.253 0 .52.053.813.173s.6.293.933.52l4.413 3.133c.347.24.587.52.733.853.133.333.213.667.213 1.04z" />
            <path stroke-linecap="round" stroke-linejoin="round" stroke-width="1.143"
                d="M25.048 12c0-.8-.627-2.027-1.56-3.027-.853-.92-1.987-1.64-3.107-1.64M29.714 12a9.326 9.326 0 0 0-9.333-9.333" />
        </symbol>
        <symbol id="hero-icon-2" viewBox="0 0 32 32">
            <path stroke-linecap="round" stroke-linejoin="round" stroke-miterlimit="10" stroke-width="1.143"
                d="M10.667 2.667v4m10.666-4v4M4.667 12.12h22.667m.666-.787v11.333c0 4-2 6.667-6.667 6.667H10.666c-4.667 0-6.667-2.667-6.667-6.667V11.333c0-4 2-6.667 6.667-6.667h10.667C26 4.666 28 7.333 28 11.333z" />
            <path stroke-linecap="round" stroke-linejoin="round" stroke-width="1.524"
                d="M20.927 18.266h.012m-.012 4h.012m-4.946-4h.013m-.013 4h.013m-4.947-4h.013m-.013 4h.013" />
        </symbol>
        <symbol id="hero-icon-3" viewBox="0 0 32 32">
            <path stroke-linecap="round" stroke-linejoin="round" stroke-width="1.143"
                d="M24.053 18.067a2.678 2.678 0 0 0-.8 2.173c.12 1.44 1.44 2.493 2.88 2.493h2.533v1.587a5.024 5.024 0 0 1-5.013 5.013H8.346a5.024 5.024 0 0 1-5.013-5.013v-8.973a5.024 5.024 0 0 1 5.013-5.013h15.307a5.024 5.024 0 0 1 5.013 5.013v1.92h-2.693c-.747 0-1.427.293-1.92.8z" />
            <path stroke-linecap="round" stroke-linejoin="round" stroke-width="1.143"
                d="M3.333 16.547v-6.093c0-1.587.973-3 2.453-3.56l10.587-4A2.529 2.529 0 0 1 19.51 4.09c.19.363.289.767.289 1.177v5.067M9.333 16h9.333m11.413 2.627v2.747a1.37 1.37 0 0 1-1.333 1.36h-2.613c-1.44 0-2.76-1.053-2.88-2.493-.08-.84.24-1.627.8-2.173a2.655 2.655 0 0 1 1.92-.8h2.773a1.369 1.369 0 0 1 1.333 1.36z" />
        </symbol>
        <symbol id="record-arrow" viewBox="0 0 32 32">
            <path
                d="M13.172 24.894a1.3 1.3 0 0 1-1.3-1.183 1.291 1.291 0 0 1 .296-.953l5.834-6.98-5.626-6.994a1.313 1.313 0 0 1-.284-.959 1.306 1.306 0 0 1 .479-.878 1.305 1.305 0 0 1 1.902.195l6.29 7.814a1.299 1.299 0 0 1 0 1.654l-6.512 7.814a1.298 1.298 0 0 1-1.081.469z" />
        </symbol>
        <symbol id="record-edit" viewBox="0 0 32 32">
            <path stroke-linecap="round" stroke-linejoin="round" stroke-width="2"
                d="M14.667 2.667H12c-6.667 0-9.333 2.667-9.333 9.333v8c0 6.667 2.667 9.333 9.333 9.333h8c6.667 0 9.333-2.667 9.333-9.333v-2.667" />
            <path stroke-linecap="round" stroke-linejoin="round" stroke-miterlimit="10" stroke-width="2"
                d="M21.387 4.027 10.88 14.534c-.4.4-.8 1.187-.88 1.76l-.573 4.013c-.213 1.453.813 2.467 2.267 2.267l4.013-.573c.56-.08 1.347-.48 1.76-.88l10.507-10.507c1.813-1.813 2.667-3.92 0-6.587s-4.773-1.813-6.587 0z" />
            <path stroke-linecap="round" stroke-linejoin="round" stroke-miterlimit="10" stroke-width="2"
                d="M19.88 5.534a9.523 9.523 0 0 0 6.586 6.586" />
        </symbol>
        <symbol id="services-icon-1" viewBox="0 0 31 32">
            <path
                d="M12.733.443c0 .25.133.372.297.272s.221-.306.129-.455c-.25-.405-.425-.33-.425.183zM9.38 2.327c.101.163.306.221.455.129.405-.25.33-.425-.183-.425-.25 0-.372.133-.272.297zm3.353 1.472c0 .17.131.228.292.129s.292-.238.292-.309c0-.071-.131-.129-.292-.129s-.292.139-.292.309zm1.022 1.007c-3.611.801-5.686 1.873-7.826 4.044-1.789 1.815-3.051 4.37-3.461 7.007-.253 1.627-.477 2.263-.839 2.378-.271.086-.731.419-1.021.739-.504.557-.505.655-.026 2.173.604 1.916 1.118 2.483 2.249 2.483.489 0 .855.156.856.365.004 1.052 3.612 5.283 5.173 6.064.445.223 1.006.565 1.247.76s1.521.574 2.846.842c2.248.454 2.568.454 4.816 0 1.324-.268 2.605-.646 2.846-.842s.802-.537 1.247-.76c1.561-.781 5.169-5.011 5.173-6.064.001-.208.367-.365.856-.365 1.131 0 1.645-.567 2.249-2.483.479-1.518.477-1.616-.026-2.173-.29-.32-.75-.653-1.021-.739-.361-.115-.585-.746-.834-2.348-.838-5.392-4.566-9.366-10.116-10.784-.959-.245-1.944-.499-2.189-.564s-1.234.056-2.197.269zm4.238 1.02c5.023.953 8.943 5.296 9.742 10.791.264 1.815.408 2.188.812 2.11.685-.133 1.144.875.925 2.032-.304 1.601-.625 1.993-1.645 2.006-.842.011-1.012.169-1.648 1.532-.925 1.981-3.794 4.816-5.98 5.91-1.591.796-1.975.864-4.839.864s-3.248-.069-4.839-.864c-2.186-1.093-5.055-3.929-5.98-5.91-.637-1.364-.807-1.521-1.648-1.532-1.044-.013-1.353-.412-1.667-2.15-.227-1.255.206-2.054.979-1.809.401.127.53-.219.784-2.11C4.008 9.108 10.501 4.404 17.994 5.825zM9.544 18.627c-.662 1.236 1.108 2.028 1.844.826.259-.422.21-.612-.243-.949-.764-.567-1.252-.529-1.601.123zm10.031-.123c-.452.336-.502.527-.245.949.462.758 1.472.828 1.847.128.239-.447.205-.687-.147-1.039-.564-.564-.739-.569-1.455-.037zm-9.032 4.889c-1.789 2.126.138 5.146 3.617 5.669 4.559.685 8.356-2.891 6.018-5.669l-.728-.865h-8.179l-.728.865zm3.484-.026c.854.237 1.58.227 2.838-.04 1.475-.313 1.784-.297 2.423.121.96.629 1.193 1.652.627 2.748-1.562 3.021-7.532 3.051-9.086.046-.599-1.158-.542-1.653.286-2.48.798-.799 1.241-.858 2.913-.395zm.374 1.61c-.446.446-.203 1.845.375 2.154.953.51 1.805-.123 1.695-1.26-.077-.797-.216-.942-.976-1.016-.487-.048-.98.007-1.095.121z" />
        </symbol>
        <symbol id="services-icon-2" viewBox="0 0 31 32">
            <path
                d="M23.438.34c-.116.187.048.626.364.975.56.619.515.693-1.884 3.092L19.46 6.865l-1.603-1.579c-1.246-1.228-1.688-1.493-1.987-1.195s-.177.6.546 1.355l.93.971-13.88 13.902 1.244 4.8-2.23 2.248C.584 29.278.25 29.78.25 30.72v1.106l5.6-5.567 4.8 1.244 13.902-13.88.971.93c.755.723 1.056.845 1.355.546s.033-.74-1.195-1.987l-1.579-1.603 2.458-2.458c2.436-2.436 2.464-2.452 3.12-1.859.513.464.748.513 1.044.218s-.409-1.174-3.122-3.896c-1.927-1.933-3.606-3.515-3.731-3.515s-.321.153-.437.34zm3.378 3.985 1.419 1.445-4.942 4.942-3.029-3.029 2.386-2.402c1.312-1.321 2.468-2.402 2.567-2.402s.82.651 1.6 1.445zm-5.763 5.758 2.709 2.723-13.49 13.49-4.417-1.181-.588-2.2c-.536-2.004-.543-2.245-.084-2.705s.634-.379 1.945.908c1.125 1.104 1.524 1.328 1.826 1.026s.078-.701-1.028-1.828l-1.415-1.442 1.722-1.722.813.764c.622.584.901.676 1.188.388s.196-.566-.388-1.188l-.764-.813 1.722-1.722 1.442 1.415c1.127 1.106 1.526 1.331 1.828 1.028s.078-.701-1.028-1.828l-1.415-1.442 1.722-1.722.813.764c.622.584.901.676 1.188.388s.196-.566-.388-1.188l-.764-.813 1.722-1.722 1.442 1.415c1.127 1.106 1.526 1.331 1.828 1.028s.08-.699-1.016-1.816c-1.376-1.402-1.392-1.442-.816-2.079.323-.357.676-.649.785-.649s1.417 1.225 2.907 2.723z" />
        </symbol>
        <symbol id="services-icon-3" viewBox="0 0 32 32">
            <path
                d="M.522.356C.416.547.218 2.269.082 4.181c-.313 4.408.277 9.202 1.691 13.746.602 1.934 1.26 4.819 1.463 6.412.707 5.552 1.638 6.438 7.31 6.957 2.173.199 4.616.482 5.429.629s2.724.072 4.247-.168c3.554-.559 11.554-3.072 11.738-3.687.288-.961-.966-.873-4.418.31-6.803 2.331-7.186 2.361-17.745 1.368-4.194-.394-4.577-.8-5.271-5.566-.284-1.958-1.064-5.274-1.732-7.37-1.156-3.627-1.218-4.115-1.278-10.17C1.459.9 1.184-.838.522.356zM12.354.338c-.099.182.148 1.718.548 3.414.611 2.589.688 3.808.478 7.606a369.175 369.175 0 0 0-.305 6.373l-.056 1.85 3.324.231c2.448.17 3.925.52 5.605 1.329 2.609 1.256 9.146 2.329 9.793 1.609.75-.835-.094-1.199-3.321-1.432-2.308-.167-3.974-.555-5.645-1.316-1.303-.594-3.741-1.28-5.417-1.525-3.469-.507-3.271-.126-2.65-5.095.425-3.405.023-8.567-.899-11.531-.472-1.516-1.1-2.169-1.457-1.513z" />
        </symbol>
        <symbol id="services-icon-4" viewBox="0 0 32 32">
            <path
                d="M13.548.28c-.314.507.16 5.947.697 8.012.415 1.595 1.431 3.454 2.163 3.957.172.118.232 1.641.14 3.547-.331 6.863-2.286 8.501-8 6.701-4.028-1.269-6.065-.142-7.866 4.351-.828 2.064-.849 2.239-.345 2.795.689.76 2.525 1.368 3.345 1.108.349-.111.721-.472.826-.803.304-.955 1.458-2.267 1.994-2.267.27 0 1.253.651 2.186 1.447 2.634 2.247 4.324 2.871 7.773 2.872 8.272.002 13.978-5.252 15.35-14.133.915-5.922-1.531-10.972-5.948-12.282-2.055-.609-2.88-.588-4.947.125-2.029.7-2.012.722-2.311-3.02L18.399.11 16.085.016c-1.445-.059-2.397.04-2.536.264zm3.839 1.685c.107.399.203 1.306.213 2.015s.207 1.725.437 2.257c.357.826.338 1.132-.128 2.096-.3.621-.688 1.486-.863 1.924l-.319.795-.545-.83c-.711-1.084-1.486-4.784-1.493-7.128l-.005-1.854h1.254c1.028 0 1.29.131 1.449.726zm9.145 5.108c3.101 1.499 4.507 4.658 4.205 9.449-.539 8.553-5.583 13.876-13.56 14.31-3.49.19-4.976-.302-7.657-2.529-2.586-2.149-3.259-2.271-4.683-.849-.623.622-1.133 1.363-1.133 1.647 0 .668-1.704.702-2.25.045-.535-.644 1.55-5.023 2.68-5.627.931-.497 2.72-.358 5.763.448 2.798.741 4.252.483 5.656-1.003 1.396-1.479 2.019-3.708 2.238-8.02.269-5.278 1.09-7.282 3.353-8.183 1.398-.557 3.89-.412 5.388.312zm-5.748 8.193c-1.057.573-1.725 2.116-1.427 3.298.246.981 4.005 4.924 4.693 4.924s4.447-3.944 4.693-4.924c.311-1.239-.39-2.744-1.56-3.348-.814-.42-1.171-.439-2.169-.11-.888.292-1.366.301-1.865.035-.864-.462-1.329-.437-2.365.125zm2.548 1.309c.65.454.786.454 1.436 0 1.492-1.044 2.835-.444 2.835 1.266 0 .778-.386 1.376-1.776 2.746l-1.776 1.752-1.776-1.752c-1.39-1.37-1.776-1.968-1.776-2.746 0-1.711 1.342-2.31 2.835-1.266z" />
        </symbol>
        <symbol id="services-icon-5" viewBox="0 0 40 32">
            <path
                d="M4.299.796c-5.231 2.953-5.495 15.378-.567 26.679 1.983 4.546 3.712 5.562 5.928 3.484.877-.822 1.185-1.701 1.531-4.365.468-3.606 1.414-6.506 2.122-6.506.864 0 1.829 2.283 2.263 5.354.774 5.467 1.888 7.039 4.5 6.342 1.484-.396 1.196-1.849-.372-1.877-1.553-.028-1.62-.137-2.049-3.367-.726-5.458-2.148-8.283-4.17-8.283-2.03 0-3.492 3.043-4.217 8.773-.566 4.48-2.354 3.834-4.469-1.616-1.976-5.092-2.773-9.707-2.563-14.852.216-5.301.956-7.153 3.268-8.18 1.416-.629 1.816-.625 4.054.036 3.067.907 4.627.915 7.662.042 1.302-.375 2.895-.563 3.54-.419 1.5.336 3.198 2.482 3.778 4.774.508 2.008.86 2.396 1.68 1.856.985-.648-.537-5.161-2.293-6.8-2.03-1.895-3.547-2.146-7.302-1.204-2.969.744-3.347.747-6.002.038-3.604-.963-4.478-.95-6.322.09zm22.35 12.568c-2.216 1.234-4.444 4.449-4.829 6.967-.483 3.165.454 6.161 2.663 8.517 3.941 4.203 9.075 4.203 13.024 0 1.614-1.718 2.087-2.603 2.485-4.648.582-2.993-.066-5.95-1.848-8.434-2.433-3.392-7.729-4.499-11.495-2.403zm7.616 1.647c2.3 1.111 3.701 3.247 3.952 6.027.272 3.015-.098 4.26-1.9 6.381-2.769 3.259-7.04 3.525-10.058.625-2.107-2.024-2.735-3.718-2.499-6.742.44-5.648 5.528-8.695 10.504-6.293zm-3.872 6.403c-3.103 3.319-3.736 4.625-2.244 4.625.301 0 1.958-1.547 3.682-3.438 2.618-2.87 3.047-3.55 2.602-4.119-.293-.375-.561-.682-.597-.682s-1.585 1.626-3.444 3.614z" />
        </symbol>
        <symbol id="services-icon-6" viewBox="0 0 29 32">
            <path
                d="M11.655.172C9.977.536 8.932 1.179 8.767 1.95c-.078.365-.363 2.717-.634 5.226-.555 5.15-.415 6.241 1.076 8.353 2.506 3.549 8.196 3.549 10.702 0 1.491-2.111 1.631-3.202 1.076-8.353-.644-5.969-.607-5.844-1.886-6.467-1.257-.612-5.641-.928-7.446-.537zm6.393 1.325c1.26.359 1.299.463 1.697 4.569l.21 2.168H9.166l.21-2.168c.389-4.012.462-4.227 1.541-4.548 1.355-.403 5.747-.416 7.131-.022zm-4.114 1.92c0 .857-.104.963-.939.963-.73 0-.939.143-.939.642s.209.642.939.642c.835 0 .939.107.939.963 0 .749.139.963.626.963s.626-.214.626-.963c0-.857.104-.963.939-.963.73 0 .939-.143.939-.642s-.209-.642-.939-.642c-.835 0-.939-.107-.939-.963 0-.749-.139-.963-.626-.963s-.626.214-.626.963zm5.869 6.205c.608.398.466 2.984-.241 4.406-2.02 4.062-7.985 4.062-10.005 0-.666-1.341-.849-3.837-.319-4.38.372-.382 9.986-.405 10.565-.026zM9.167 19.79c-2.949.769-5.165 1.887-6.874 3.47-1.732 1.604-2.132 2.73-2.132 6V32h28.8v-2.74c0-3.269-.4-4.397-2.129-5.998-1.513-1.401-2.919-2.176-5.699-3.143-2.968-1.033-8.665-1.19-11.965-.329zm9.06.776c.139.131-3.481 8.865-3.675 8.865-.111 0-.965-1.905-1.897-4.233l-1.793-4.477c-.145-.361 2.277-.542 4.95-.37 1.291.083 2.378.18 2.415.215zm-6.68 4.772a890.892 890.892 0 0 1 1.99 4.976c.117.313-1.205.401-5.987.401H1.412v-2.408c0-2.324.04-2.453 1.154-3.718 1.359-1.544 5.069-3.566 6.985-3.807.086-.011.984 2.039 1.996 4.555zm11.548-3.209c1.328.613 2.583 1.496 3.365 2.367 1.224 1.362 1.247 1.433 1.247 3.804v2.416h-6.138c-4.782 0-6.105-.089-5.987-.401.083-.221.979-2.455 1.99-4.964 2.106-5.224 1.7-4.988 5.523-3.221z" />
        </symbol>
        <symbol id="services-icon-7" viewBox="0 0 32 32">
            <path
                d="M1.616.405C1.042.654.452 1.251.214 1.822c-.391.942-.347 1.058.992 2.606.771.891 1.942 2.509 2.601 3.595l1.2 1.975-.794.941c-2.021 2.396-2.377 8.468-.697 11.893 1.602 3.266 5.444 5.915 9.752 6.725 1.047.197 2.557.686 3.354 1.086 3.244 1.629 7.687 1.802 12.018.468 1.417-.436 2.329-.922 2.651-1.411 1.125-1.712.867-8.298-.477-12.194-.336-.974-.826-2.906-1.088-4.293s-.837-3.405-1.277-4.485l-.8-1.963 2.225-1.849c1.817-1.51 2.187-1.972 2.018-2.524-.31-1.01-.82-1.531-1.971-2.011-1.514-.631-1.784-.563-3.397.853-1.659 1.456-2.144 1.559-2.985.632-.326-.359-1.079-.953-1.673-1.319-.938-.578-1.207-.614-2.036-.271-.526.217-1.406.906-1.957 1.532l-1.001 1.137 1.522 1.159-.852 1.516c-.692 1.232-1.102 1.589-2.184 1.908-.733.216-1.799.745-2.37 1.177-1.424 1.076-2.387.705-3.529-1.359l-.88-1.59 1.435-1.196c1.204-1.003 1.403-1.329 1.239-2.019C10.856.87 9.255-.237 8.083.349c-.354.178-1.035.686-1.512 1.129l-.867.806L4.6 1.117C3.391-.161 3.087-.233 1.614.406zm2.931 2.301 1.001 1.311 1.524-1.376c1.582-1.428 2.211-1.514 2.816-.385.285.531.113.82-1.137 1.917-.81.711-1.472 1.432-1.472 1.603s.364.845.808 1.498l.809 1.187-1.522.387c-.837.213-1.538.358-1.556.323-.883-1.661-2.113-3.524-3.232-4.894-.785-.961-1.428-1.812-1.428-1.89s.236-.377.524-.664c.797-.795 1.759-.464 2.865.984zm18.986.857c2.345 2.348 4.126 5.296 4.568 7.56l.206 1.054-1.113-1.054c-.612-.58-1.61-1.499-2.217-2.044S23.459 7.464 22.954 6.7l-.918-1.39-.644 1.014c-.543.855-.841 1.014-1.901 1.014-1.502 0-1.575-.349-.421-2.041l.836-1.227-1.389-1.474.869-.681c.478-.375 1.083-.681 1.345-.681s1.523 1.048 2.802 2.329zm6.649-1.66.671.669-1.371 1.178c-2.477 2.128-2.413 2.11-3.225.973l-.723-1.012 1.332-1.239c1.503-1.398 2.341-1.542 3.316-.569zm-8.347 7.025c1.816.545 4.144 2.254 5.494 4.033 2.256 2.973 3.456 7.335 3.465 12.603.005 3.058-.045 3.318-.719 3.751-2.548 1.637-9.215 1.925-12.393.536-1.994-.872-4.202-3.11-5.407-5.482-.956-1.881-1.83-5.568-1.717-7.241.082-1.219-.145-1.618-.722-1.262-.6.37-.176 5.107.653 7.291.385 1.013 1.197 2.564 1.806 3.446s1.107 1.668 1.107 1.747c0 .271-2.422-.524-3.958-1.299C7.2 25.919 5.49 24.24 4.473 22.17c-.763-1.553-.894-2.218-.896-4.55-.002-3.306.685-5.331 2.286-6.732 1.286-1.126 3.008-1.298 5.215-.521 1.198.422 1.345.41 1.848-.145.301-.331 1.147-.908 1.881-1.281 1.103-.561 1.726-.652 3.59-.524 1.24.085 2.789.315 3.44.511z" />
        </symbol>
        <symbol id="services-icon-8" viewBox="0 0 21 32">
            <path
                d="M8.094.666c-1.071.585-1.685 1.24-2.234 2.38-.734 1.526-.778 2.457-.219 4.718.137.555-.156.89-1.427 1.631C2.082 10.637.719 12.853.211 15.906c-.336 2.022-.295 3.028.301 7.35.38 2.754.691 5.772.691 6.706 0 1.74.435 2.465 1.072 1.786.259-.276.183-1.762-.275-5.369-.349-2.743-.633-6.481-.633-8.307 0-3 .088-3.479.911-4.97.584-1.059 1.453-1.989 2.424-2.595 1.433-.894 1.535-.911 1.943-.318.361.525.341.771-.121 1.522-.729 1.184-.712 4.42.029 5.908l.558 1.119-1.488.701c-2.333 1.099-2.612 2.16-2.065 7.863.347 3.618.541 4.574.929 4.574.561 0 .577-.574.172-6.015-.228-3.058-.188-3.696.28-4.456.819-1.332 1.282-1.121 1.029.471-.416 2.626.811 5.413 2.894 6.571 1.536.853 4.656.782 6.311-.143 3.085-1.725 4.845-5.181 5.461-10.725C21.676 8.197 17.759.952 11.169.071 9.881-.101 9.286.014 8.095.665zm5.031 1.191c2.911 1.056 5.334 4.435 6.175 8.612.566 2.811.183 9.088-.706 11.581-.841 2.357-2.635 4.652-4.171 5.337-2.555 1.139-5.86.187-6.893-1.986-.576-1.212-.518-3.907.12-5.604.5-1.332.5-1.523 0-2.64-.711-1.587-.682-3.896.064-5.2.594-1.039.591-1.068-.33-3.145-1.042-2.35-1.167-3.915-.434-5.425.977-2.011 3.278-2.581 6.175-1.53z" />
        </symbol>
        <symbol id="services-icon-9" viewBox="0 0 31 32">
            <path
                d="M22.502 1.145c-.832 1.378-.884 2.24-.151 2.524.424.164.461.366.171.914-.205.387-.583.622-.839.522-.706-.273-1.068.354-3.014 5.219-1.619 4.05-1.753 4.589-1.393 5.632.3.869.789 1.323 1.981 1.839 1.537.665 1.615.666 2.683.037.779-.459 1.292-1.186 1.76-2.495.363-1.016.846-1.848 1.074-1.848.599 0 1.259.759 1.259 1.449 0 1.227-1.74 4.448-2.892 5.353l-1.191.936-4.375-1.726c-3.947-1.557-5.425-1.794-4.797-.768.11.18 2.172 1.089 4.581 2.018 4.197 1.619 4.387 1.737 4.55 2.814.093.618.011 1.324-.184 1.568-.56.704-2.882.521-5.614-.444-1.385-.489-2.566-.839-2.626-.779s.119.438.397.839c.738 1.064 5.086 2.4 6.773 2.082.732-.138 1.517-.407 1.745-.597.506-.422 2.706.622 2.392 1.136-.116.188-2.242.34-4.764.34-2.506 0-4.553.12-4.55.267.021 1.017.75 1.142 7.223 1.236 6.026.088 6.68.157 6.787.719.109.575-.397.622-6.734.622-5.924 0-6.882.076-7.066.563-.118.309-.214.633-.214.718s3.367.112 7.481.06l7.481-.096.108-1.313c.158-1.921-.813-2.771-3.188-2.792-1.833-.016-1.841-.021-1.017-.622 2.508-1.83 3.274-3.304 2.623-5.046-.281-.752-.155-1.424.64-3.404.545-1.357.995-3.042 1-3.744.014-1.705-1.344-4.218-2.832-5.239-.666-.458-1.156-1.07-1.095-1.368.061-.297-.14-.821-.448-1.165-.72-.804-.341-1.917.57-1.676.501.132.842-.176 1.388-1.258.398-.789.592-1.558.432-1.711s-1.446-.769-2.856-1.369L23.197 0l-.691 1.145zm3.348 1.319c1.459.632 1.894 1.425.782 1.425-.861 0-3.413-1.263-3.414-1.689-.002-.628.745-.553 2.632.264zm-.873 2.886c0 .416-.247.673-.645.673-.911 0-1.145-.346-.745-1.1.425-.802 1.391-.506 1.391.427zm-1.144 1.917c.823.336 1.496.765 1.496.953 0 .432-2.13 5.708-2.455 6.081-.133.153-1.123-.063-2.199-.479l-1.957-.757.877-2.188a532.677 532.677 0 0 1 1.368-3.382c.288-.7.674-1.121.933-1.017l1.938.789zm3.779 3.793c1.085.862 1.941 2.644 1.941 4.041 0 .735-1.168 4.127-1.635 4.748-.056.075-.575-.061-1.151-.302l-1.049-.439.685-1.756c.943-2.416.874-3.399-.317-4.523-.838-.79-.945-1.077-.651-1.743.441-.998.945-1.004 2.176-.026zM3.151 14.912c0 .474.235.711.704.711.612 0 .704.237.704 1.818 0 1.438-.442 2.848-2.112 6.744C1.285 26.894.335 29.507.335 29.991c0 1.702 1.022 1.988 7.119 1.988 5.085 0 5.614-.06 6.258-.711.387-.391.704-.953.704-1.249s-1.109-2.774-2.464-5.506c-2.158-4.351-2.464-5.212-2.464-6.929 0-1.723.085-1.96.704-1.96.469 0 .704-.237.704-.711 0-.668-.235-.711-3.872-.711s-3.872.043-3.872.711zm18.847.711c.09 0 .163.223.163.495 0 1.321-3.47.722-4.007-.692-.404-1.065.149-1.21 1.922-.504.967.385 1.832.7 1.922.7zM8.86 18.201c.072 1.418.26 2.858.418 3.2.258.561.04.622-2.229.622-2.377 0-2.495-.038-2.15-.688.2-.378.364-1.818.364-3.2v-2.512h3.465l.132 2.578zm18.723 3.109c.878.87.82 2.743-.112 3.685-1.658 1.674-4.749.416-4.683-1.906.072-2.558 2.938-3.621 4.796-1.779zm-15.654 5.288c.842 1.734 1.419 3.334 1.284 3.556-.167.273-2.104.402-6.034.402-6.776 0-6.467.286-4.503-4.178l1.291-2.933H10.4l1.53 3.153zm-6.666-1.02c0 .391.158.711.352.711s.352-.32.352-.711-.158-.711-.352-.711c-.194 0-.352.32-.352.711zm2.251 1.215c-.292.767.114 1.722.654 1.541.242-.081.44-.522.44-.978 0-.975-.784-1.378-1.093-.563z" />
        </symbol>
        <symbol id="services-icon-10" viewBox="0 0 32 32">
            <path stroke-linecap="round" stroke-linejoin="round" stroke-miterlimit="10" stroke-width="2"
                d="M19.44 7.907 27.533 16l-8.093 8.093M4.867 16h22.44" />
        </symbol>
        <symbol id="faq-bubbles" viewBox="0 0 14 32">
            <path
                d="M6.578 3.032c0 1.675-1.35 3.032-3.015 3.032s-3.015-1.358-3.015-3.032c0-1.675 1.35-3.032 3.015-3.032s3.015 1.358 3.015 3.032zM6.51 3.032c0-1.632-1.314-2.964-2.946-2.964s-2.946 1.332-2.946 2.964c0 1.632 1.314 2.964 2.946 2.964s2.946-1.332 2.946-2.964z">
            </path>
            <path
                d="M14.39 16.805c0 2.583-2.224 4.677-4.968 4.677s-4.968-2.094-4.968-4.677c0-2.583 2.224-4.745 4.968-4.745s4.968 2.162 4.968 4.745zM14.321 16.805c0-2.517-2.21-4.677-4.899-4.677s-4.899 2.159-4.899 4.677c0 2.517 2.21 4.608 4.899 4.608s4.899-2.091 4.899-4.608z">
            </path>
            <path
                d="M4.454 29.773c0 1.23-0.997 2.227-2.227 2.227s-2.227-0.997-2.227-2.227c0-1.23 0.997-2.227 2.227-2.227s2.227 0.997 2.227 2.227zM4.385 29.773c0-1.199-0.953-2.158-2.158-2.158s-2.158 0.96-2.158 2.158c0 1.199 0.953 2.158 2.158 2.158s2.158-0.96 2.158-2.158z">
            </path>
        </symbol>
        <symbol id="call-icon" viewBox="0 0 29 32">
            <path stroke-miterlimit="10" stroke-width="2"
                d="M27.96 22.091c0 .411-.107.834-.333 1.246s-.52.8-.907 1.166a6.077 6.077 0 0 1-2.187 1.349c-.8.286-1.667.434-2.6.434-1.36 0-2.813-.274-4.347-.834s-3.067-1.314-4.587-2.263a37.385 37.385 0 0 1-4.373-3.2 34.438 34.438 0 0 1-3.72-3.737c-1.093-1.303-1.973-2.606-2.613-3.897-.64-1.303-.96-2.549-.96-3.737 0-.777.16-1.52.48-2.206.32-.697.827-1.337 1.533-1.909.853-.72 1.787-1.074 2.773-1.074.373 0 .747.069 1.08.206.347.137.653.343.893.64l3.093 3.737c.24.286.413.549.533.8.12.24.187.48.187.697 0 .274-.093.549-.28.811a4.023 4.023 0 0 1-.747.811l-1.013.903a.568.568 0 0 0-.213.457c0 .091.013.171.04.263.04.091.08.16.107.229.24.377.653.869 1.24 1.463.6.594 1.24 1.2 1.933 1.806.72.606 1.413 1.166 2.12 1.68.693.503 1.267.846 1.72 1.051.067.023.147.057.24.091.107.034.213.046.333.046.227 0 .4-.069.547-.194l1.013-.857c.333-.286.653-.503.96-.64.307-.16.613-.24.947-.24.253 0 .52.046.813.149s.6.251.933.446l4.413 2.686c.347.206.587.446.733.731.133.286.213.571.213.891z" />
        </symbol>
        <symbol id="global" viewBox="0 0 32 32">
            <path stroke-linecap="round" stroke-linejoin="round" stroke-width="2"
                d="M16 29.333c7.364 0 13.333-5.969 13.333-13.333S23.364 2.667 16 2.667 2.667 8.636 2.667 16 8.636 29.333 16 29.333z" />
            <path stroke-linecap="round" stroke-linejoin="round" stroke-width="2"
                d="M10.666 4h1.333a37.898 37.898 0 0 0 0 24h-1.333m9.333-24a37.898 37.898 0 0 1 0 24" />
            <path stroke-linecap="round" stroke-linejoin="round" stroke-width="2"
                d="M4 21.333V20a37.898 37.898 0 0 0 24 0v1.333M4 11.999a37.898 37.898 0 0 1 24 0" />
        </symbol>
        <symbol id="search" viewBox="0 0 32 32">
            <path stroke-linecap="round" stroke-linejoin="round" stroke-width="2"
                d="m29.333 29.333-2.667-2.667M15.333 28a12.674 12.674 0 0 0 8.956-3.71 12.655 12.655 0 0 0 2.746-13.803 12.672 12.672 0 0 0-11.702-7.819 12.663 12.663 0 0 0-8.957 21.624 12.663 12.663 0 0 0 8.957 3.71z" />
        </symbol>
        <symbol id="burger-menu" viewBox="0 0 32 32">
            <path stroke-linecap="round" stroke-width="2.667" d="M4 9.333h24.381M4 16.191h24.381M4 23.048h24.381" />
        </symbol>
        <symbol id="choose-arrow" viewBox="0 0 32 32">
            <path d="M15.998 19.919l-9.333-9.333-1.414 1.414 10.748 10.747 10.747-10.747-1.414-1.414-9.333 9.333z">
            </path>
        </symbol>
    </defs>
</svg>